<svg width="153" height="46" viewBox="0 0 153 46" fill="none" xmlns="http://www.w3.org/2000/svg">
<g clip-path="url(#clip0_1_1012)">
<path fill-rule="evenodd" clip-rule="evenodd" d="M152.375 40.5935C152.378 41.7834 151.918 42.9277 151.092 43.7848C150.694 44.1981 150.216 44.5274 149.688 44.7535C149.16 44.9795 148.592 45.0977 148.018 45.101H4.88C2.5025 45.1273 0.52625 43.091 0.5 40.601V4.61601C0.5225 2.12976 2.4725 0.0935122 4.835 0.0935122H147.976C150.354 0.0672622 152.326 2.10726 152.349 4.59351V40.5935H152.375Z" fill="#1A1A1A"/>
<path fill-rule="evenodd" clip-rule="evenodd" d="M23.9825 9.16895C31.25 9.16895 37.0625 14.9327 37.0625 21.9827C37.0625 29.0327 31.2275 34.7964 23.9825 34.8039C16.7375 34.8114 10.8837 29.0889 10.895 21.9827C10.9062 14.8764 16.7787 9.1802 23.9825 9.16895ZM23.3412 22.5939H18.365V22.7514C18.4109 24.2673 18.6081 25.7748 18.9537 27.2514C18.9912 27.4164 19.0512 27.4727 19.22 27.4689H23.345L23.3412 22.5939ZM23.3412 16.4927H19.1487C19.0175 16.4927 18.98 16.5452 18.9537 16.6614C18.6688 17.8564 18.4844 19.0732 18.4025 20.2989C18.3762 20.6552 18.3687 21.0152 18.35 21.3714H23.3412V16.4927ZM35.8025 22.5939H30.8337C30.7921 24.2377 30.5733 25.8721 30.1812 27.4689H34.28C34.3223 27.4636 34.3629 27.4486 34.3987 27.4252C34.4344 27.4019 34.4644 27.3706 34.4862 27.3339C34.9099 26.5465 35.236 25.7103 35.4575 24.8439C35.6458 24.107 35.7614 23.3534 35.8025 22.5939V22.5939ZM17.135 22.5939H12.1887V22.7964C12.2999 24.3596 12.73 25.8834 13.4525 27.2739C13.4781 27.3379 13.5237 27.3918 13.5825 27.4276C13.6413 27.4634 13.7102 27.4793 13.7787 27.4727H17.8025C17.4044 25.8753 17.1805 24.2395 17.135 22.5939V22.5939ZM35.7987 21.3639V21.2289C35.693 19.6168 35.2483 18.0451 34.4937 16.6164C34.4698 16.5653 34.4295 16.5236 34.3793 16.4978C34.3291 16.472 34.2717 16.4636 34.2162 16.4739H30.155L30.1812 16.5939C30.5446 18.068 30.7507 19.5764 30.7962 21.0939C30.7962 21.2927 30.8562 21.3564 31.0625 21.3527H35.54L35.7987 21.3639ZM17.75 16.4964H13.7C13.55 16.4964 13.5012 16.5752 13.4487 16.6802C12.8457 17.8244 12.4436 19.0637 12.26 20.3439C12.2112 20.6889 12.185 21.0414 12.1475 21.3827L12.2487 21.4014H16.97C17.1237 21.4014 17.1387 21.3302 17.1462 21.2064C17.1912 20.5277 17.2175 19.8527 17.3075 19.1814C17.4275 18.2702 17.6 17.3964 17.75 16.4964ZM24.6237 27.4689H28.7262C28.865 27.4689 28.9062 27.4164 28.9362 27.2927C29.2095 26.1453 29.3901 24.9778 29.4762 23.8014C29.5062 23.4264 29.5175 22.9989 29.54 22.5902H24.6237V27.4689ZM29.5175 21.3677C29.4905 19.7892 29.297 18.218 28.94 16.6802C28.9025 16.5189 28.8275 16.4889 28.6775 16.4889H24.6087V21.3639L29.5175 21.3677ZM23.3412 10.4477H23.2137C22.43 10.6703 21.7344 11.1301 21.2225 11.7639C20.4567 12.6962 19.8717 13.7632 19.4975 14.9102C19.4551 15.0206 19.4188 15.1333 19.3887 15.2477H23.3412V10.4477ZM19.3775 28.7027C19.3897 28.7625 19.406 28.8214 19.4262 28.8789C19.6737 29.4564 19.895 30.0339 20.1762 30.6077C20.6032 31.5255 21.2466 32.326 22.0512 32.9402C22.4248 33.2257 22.8581 33.4232 23.3187 33.5177V28.7027H19.3775ZM28.5462 28.7027H24.6275V33.4689C24.6765 33.4748 24.7262 33.4657 24.77 33.4427C25.2795 33.293 25.7486 33.0302 26.1425 32.6739C26.9267 31.9551 27.5459 31.0749 27.9575 30.0939C28.1712 29.6552 28.3325 29.1714 28.5462 28.6914V28.7027ZM28.5237 15.2439C28.1824 14.1722 27.6764 13.16 27.0237 12.2439C26.5826 11.5962 25.9889 11.0669 25.295 10.7027C25.085 10.6052 24.8675 10.5339 24.6275 10.4477V15.2552L28.5237 15.2439ZM27.4587 33.0939C29.9484 32.3408 32.1246 30.7965 33.6575 28.6952H30.0537C30.0197 28.6887 29.9848 28.689 29.9509 28.696C29.917 28.703 29.8849 28.7167 29.8563 28.7362C29.8277 28.7558 29.8033 28.7807 29.7844 28.8097C29.7655 28.8387 29.7525 28.8712 29.7462 28.9052C29.4039 29.9715 28.9195 30.9869 28.3062 31.9239C28.0475 32.3102 27.755 32.6739 27.4587 33.0939ZM14.3075 28.6952C15.8337 30.7871 18.0072 32.3174 20.4912 33.0489C19.4532 31.8048 18.6696 30.3688 18.185 28.8227C18.14 28.6877 18.05 28.6989 17.9487 28.6989H14.3075V28.6952ZM20.4912 10.9239C18.0221 11.651 15.8601 13.1687 14.3375 15.2439C14.3979 15.2494 14.458 15.2581 14.5175 15.2702H17.9825C18.0347 15.2737 18.0863 15.2575 18.1272 15.2249C18.1682 15.1923 18.1954 15.1456 18.2037 15.0939C18.6926 13.5705 19.4692 12.1549 20.4912 10.9239V10.9239ZM33.6162 15.2702C32.7687 13.6689 28.7712 10.8677 27.4475 10.9427C28.481 12.1485 29.2638 13.5483 29.75 15.0602C29.7653 15.1283 29.8061 15.1879 29.8639 15.227C29.9218 15.266 29.9924 15.2815 30.0612 15.2702H33.6162ZM44.7087 15.5064V11.2764H45.6012V15.4014C45.6012 16.9014 46.3175 17.5989 47.4537 17.5989C48.59 17.5989 49.2912 16.9014 49.2912 15.4014V11.2764H50.1987V15.5027C50.1987 17.4264 49.0437 18.3827 47.4387 18.3827C45.8337 18.3827 44.6937 17.4377 44.6937 15.5064H44.7087ZM51.98 16.9014C52.0598 17.1491 52.223 17.3615 52.4418 17.5023C52.6606 17.6432 52.9215 17.7038 53.18 17.6739C53.7875 17.6739 54.2262 17.4339 54.2262 16.9014C54.2262 16.5489 53.9937 16.3314 53.4537 16.1964L52.4487 15.9339C51.7287 15.7502 51.2225 15.3827 51.2225 14.5952C51.2225 13.6914 52.0137 13.0952 53.045 13.0952C54.17 13.0952 54.83 13.6464 55.0137 14.5389H54.155C54.0808 14.3066 53.9277 14.1075 53.7223 13.9761C53.5169 13.8446 53.272 13.789 53.03 13.8189C52.5275 13.8189 52.0587 14.0589 52.0587 14.5689C52.0587 14.9102 52.2875 15.0714 52.7675 15.2102L53.75 15.4314C54.62 15.6564 55.0437 16.1364 55.0437 16.8489C55.0437 17.8089 54.245 18.3864 53.1687 18.3864C52.0925 18.3864 51.245 17.8239 51.0875 16.8864L51.98 16.9014Z" fill="white"/>
<path d="M60.1025 16.7736C60.0267 17.2516 59.7742 17.6837 59.3951 17.9844C59.0159 18.2851 58.5376 18.4325 58.055 18.3974C56.6712 18.3974 55.7225 17.3324 55.7225 15.7724C55.7225 14.2124 56.6487 13.1211 58.0287 13.1211C59.4087 13.1211 60.1662 14.1374 60.1662 15.6111V15.9186H56.5775C56.5775 17.0061 57.1962 17.6661 58.055 17.6661C58.3334 17.6924 58.6118 17.6169 58.8387 17.4534C59.0656 17.29 59.2255 17.0498 59.2887 16.7774L60.1025 16.7736ZM56.6 15.2661H59.2962C59.2962 14.4974 58.8837 13.8449 58.0362 13.8449C57.2787 13.8486 56.7275 14.3736 56.6 15.2661ZM63.9387 12.2361C63.7934 12.2333 63.6549 12.1743 63.5521 12.0715C63.4494 11.9687 63.3904 11.8302 63.3875 11.6849C63.3885 11.538 63.4472 11.3974 63.5511 11.2935C63.655 11.1897 63.7956 11.1309 63.9425 11.1299C64.0894 11.1309 64.23 11.1897 64.3338 11.2935C64.4377 11.3974 64.4965 11.538 64.4975 11.6849C64.4936 11.8312 64.4333 11.9703 64.3291 12.073C64.2249 12.1758 64.085 12.2342 63.9387 12.2361ZM64.3737 18.2924H63.5V13.2186H64.3587L64.3737 18.2924Z" fill="white"/>
<path fill-rule="evenodd" clip-rule="evenodd" d="M65.6338 13.2186H66.5V13.8599C66.6764 13.6289 66.9033 13.4413 67.1632 13.3113C67.4232 13.1813 67.7094 13.1124 68 13.1099C69.155 13.1099 69.785 13.8599 69.785 14.9661V18.2999H68.9075V15.0936C68.9075 14.3849 68.555 13.8936 67.7825 13.8936C67.4951 13.9011 67.2172 13.998 66.9873 14.1707C66.7575 14.3434 66.5872 14.5834 66.5 14.8574V18.3186H65.6413L65.6338 13.2186ZM74.09 20.2386L74.84 18.3186L72.875 13.2186H73.8013L75.3013 17.2236L76.775 13.2186H77.6675L74.9338 20.2386H74.09Z" fill="white"/>
<path d="M80.375 18.3975C78.98 18.3975 78.0425 17.31 78.0425 15.7725C78.0425 14.235 78.98 13.1475 80.375 13.1475C81.77 13.1475 82.7112 14.235 82.7112 15.7725C82.7112 17.31 81.74 18.3975 80.375 18.3975ZM80.375 13.8675C79.46 13.8675 78.9087 14.6362 78.9087 15.7425C78.9087 16.8487 79.46 17.6175 80.375 17.6175C81.29 17.6175 81.8412 16.8675 81.8412 15.7425C81.8412 14.6175 81.29 13.8675 80.375 13.8675V13.8675Z" fill="white"/>
<path fill-rule="evenodd" clip-rule="evenodd" d="M87.7512 18.2924H86.8812V17.6549C86.7111 17.8871 86.4887 18.076 86.232 18.2063C85.9753 18.3366 85.6916 18.4047 85.4037 18.4049C84.2487 18.4049 83.63 17.6549 83.63 16.5524V13.2187H84.5V16.4099C84.5 17.1187 84.8412 17.6099 85.625 17.6099C85.9092 17.6054 86.1848 17.5112 86.4124 17.3409C86.64 17.1705 86.808 16.9326 86.8925 16.6612V13.2187H87.7625L87.7512 18.2924ZM91.7187 14.0774C91.5452 13.9795 91.3479 13.9315 91.1487 13.9387C90.875 13.9438 90.6108 14.0398 90.3976 14.2115C90.1844 14.3833 90.0344 14.6211 89.9712 14.8874V18.2924H89.1125V13.2187H89.9712V13.8824C90.0903 13.6513 90.2702 13.4572 90.4917 13.321C90.7131 13.1849 90.9675 13.1119 91.2275 13.1099C91.3951 13.105 91.562 13.133 91.7187 13.1924V14.0774ZM52.355 22.1212L54.605 30.9037L56.765 22.1212H58.73L55.655 34.0387H53.78L51.53 25.5187L49.2125 34.0499H47.375L44.3 22.1324H46.2837L48.4325 30.9187L50.705 22.1324L52.355 22.1212Z" fill="white"/>
<path d="M66.59 31.3724C66.2975 33.0824 65.0525 34.2449 62.9562 34.2449C60.545 34.2449 58.8725 32.4187 58.8725 29.7449C58.8725 27.1724 60.5637 25.2187 62.9187 25.2187C65.3487 25.2187 66.6687 26.9474 66.6687 29.4749V30.1762H60.7737C60.8337 31.6762 61.7112 32.6062 62.9525 32.6062C63.8862 32.6062 64.5875 32.1974 64.8012 31.3612L66.59 31.3724ZM60.8225 28.7662H64.73C64.7112 27.7162 64.1075 26.8462 62.9225 26.8462C61.865 26.8462 61.0662 27.5212 60.8337 28.7662H60.8225ZM70.13 34.0537H68.1837V21.4199H70.13V26.1599C70.4102 25.8582 70.7505 25.6186 71.129 25.4565C71.5075 25.2944 71.9158 25.2134 72.3275 25.2187C74.855 25.2187 76.3325 27.2587 76.3325 29.7187C76.3325 32.1787 74.855 34.2187 72.3275 34.2187C71.9162 34.2259 71.508 34.1464 71.1294 33.9856C70.7508 33.8247 70.4103 33.586 70.13 33.2849V34.0537ZM70.13 31.3612C70.3053 31.7081 70.5733 31.9997 70.9043 32.2036C71.2353 32.4075 71.6163 32.5157 72.005 32.5162C73.505 32.5162 74.3975 31.3312 74.3975 29.7374C74.3975 28.1437 73.5012 26.9549 72.005 26.9549C71.6164 26.9558 71.2355 27.0642 70.9046 27.268C70.5737 27.4719 70.3056 27.7632 70.13 28.1099V31.3612ZM90.5863 30.6337C90.5863 32.8837 89.0487 34.0537 86.5437 34.0537H81.9762V22.1362H86.1575C88.6437 22.1362 90.2037 23.2424 90.2037 25.3799C90.2037 26.6662 89.5212 27.5962 88.6625 27.9074C89.2262 28.1064 89.7141 28.4757 90.0587 28.9641C90.4033 29.4525 90.5877 30.0359 90.5863 30.6337V30.6337ZM86.135 27.1349C87.5 27.1349 88.25 26.6099 88.25 25.4812C88.25 24.3524 87.5 23.8649 86.1312 23.8649H83.9375V27.1349H86.135ZM83.9375 32.3062H86.5025C87.8637 32.3062 88.6025 31.6237 88.6025 30.5549C88.6025 29.4862 87.8525 28.8074 86.5025 28.8074H83.9375V32.3062Z" fill="white"/>
<path fill-rule="evenodd" clip-rule="evenodd" d="M97.1037 27.386C96.7533 27.1833 96.3534 27.082 95.9487 27.0935C95.5429 27.0777 95.1449 27.2083 94.8275 27.4617C94.5101 27.7151 94.2944 28.0743 94.22 28.4735V34.0535H92.2737V25.4285H94.22V26.3248C94.4139 25.9879 94.6948 25.7093 95.0332 25.518C95.3716 25.3267 95.7551 25.2298 96.1437 25.2373C96.4682 25.2262 96.7917 25.2785 97.0962 25.391L97.1037 27.386Z" fill="white"/>
<path d="M101.818 34.2451C99.3838 34.2451 97.6925 32.3701 97.6925 29.7451C97.6925 27.1201 99.3838 25.2451 101.818 25.2451C104.251 25.2451 105.943 27.1201 105.943 29.7451C105.943 32.3701 104.263 34.2451 101.818 34.2451ZM101.818 26.8989C100.415 26.8989 99.6575 28.1026 99.6575 29.7376C99.6575 31.3726 100.426 32.5764 101.818 32.5764C103.209 32.5764 103.974 31.3726 103.974 29.7376C103.974 28.1026 103.25 26.8989 101.818 26.8989Z" fill="white"/>
<path fill-rule="evenodd" clip-rule="evenodd" d="M115.032 31.5451L116.709 25.4214H118.584L116.075 34.0464H114.125L112.587 28.0464L111.05 34.0464H109.126L106.617 25.4214H108.564L110.236 31.5451L111.736 25.4214H113.506L115.006 31.5451H115.032ZM121.16 31.5639C121.377 32.2839 122.015 32.6514 122.874 32.6514C123.732 32.6514 124.351 32.3026 124.351 31.6201C124.351 31.1551 124.059 30.9001 123.339 30.7239L121.55 30.2964C120.327 30.0076 119.412 29.3439 119.412 27.9264C119.412 26.3889 120.792 25.2339 122.675 25.2339C124.7 25.2339 125.847 26.2089 126.14 27.7801H124.216C124.04 27.2139 123.534 26.8276 122.641 26.8276C121.962 26.8276 121.261 27.1389 121.261 27.8176C121.261 28.1926 121.535 28.4589 122.157 28.6126L123.984 29.0401C125.461 29.3926 126.2 30.2251 126.2 31.4889C126.2 33.2026 124.782 34.2526 122.825 34.2526C120.8 34.2526 119.401 33.2401 119.15 31.5601L121.16 31.5639Z" fill="white"/>
<path d="M134.967 31.3725C134.675 33.0825 133.43 34.245 131.334 34.245C128.919 34.245 127.246 32.4187 127.246 29.745C127.25 27.1725 128.941 25.2188 131.292 25.2188C133.726 25.2188 135.042 26.9475 135.042 29.475V30.1763H129.155C129.211 31.6763 130.089 32.6063 131.334 32.6063C132.267 32.6063 132.969 32.1975 133.179 31.3613L134.967 31.3725ZM129.196 28.7662H133.104C133.085 27.7162 132.481 26.8463 131.296 26.8463C130.242 26.8463 129.447 27.5212 129.211 28.7662H129.196Z" fill="white"/>
<path fill-rule="evenodd" clip-rule="evenodd" d="M141.387 27.386C141.037 27.1833 140.637 27.082 140.232 27.0935C139.826 27.0767 139.427 27.207 139.109 27.4605C138.791 27.7139 138.575 28.0736 138.5 28.4735V34.0535H136.554V25.4285H138.5V26.3248C138.694 25.9879 138.975 25.7093 139.313 25.518C139.652 25.3267 140.035 25.2298 140.424 25.2373C140.748 25.2262 141.072 25.2785 141.376 25.391L141.387 27.386Z" fill="white"/>
</g>
<defs>
<clipPath id="clip0_1_1012">
<rect width="151.875" height="45" fill="white" transform="translate(0.5 0.09375)"/>
</clipPath>
</defs>
</svg>
